# AST/ASF file generated using VICON BodyLanguage
# -----------------------------------------------
:version 1.10
:name VICON
:units
  mass 1.0
  length 0.45
  angle deg
:documentation
   .ast/.asf automatically generated from VICON data using
   VICON BodyBuilder and BodyLanguage model FoxedUp or BRILLIANT.MOD
:root
   order TX TY TZ RX RY RZ
   axis XYZ
   position 0 0 0  
   orientation 0 0 0 
:bonedata
  begin
     id 1 
     name lhipjoint
     direction 0.643272 -0.706573 0.294883 
     length 2.58915 
     axis 0 0 0  XYZ
  end
  begin
     id 2 
     name lfemur
     direction 0.34202 -0.939693 0  
     length 7.06802  
     axis 0 0 20  XYZ
    dof rx ry rz
    limits (-160.0 20.0)
           (-70.0 70.0)
           (-60.0 70.0)
  end
  begin
     id 3 
     name ltibia
     direction 0.34202 -0.939693 0   
     length 7.94147   
     axis 0 0 20   XYZ
    dof rx
    limits (-10.0 170.0)
  end
  begin
     id 4 
     name lfoot
     direction 0.0435058 -0.119531 0.991877   
     length 1.8399   
     axis -90 7.62852e-016 20   XYZ
    dof rx rz
    limits (-45.0 90.0)
           (-70.0 20.0)
  end
  begin
     id 5 
     name ltoes
     direction 1.53505e-011 -4.22157e-011 1   
     length 0.934412   
     axis -90 7.62852e-016 20   XYZ
    dof rx
    limits (-90.0 20.0)
  end
  begin
     id 6 
     name rhipjoint
     direction -0.636801 -0.711547 0.296959   
     length 2.57105  
     axis 0 0 0  XYZ 
  end
  begin
     id 7 
     name rfemur
     direction -0.34202 -0.939693 0   
     length 7.03285   
     axis 0 0 -20   XYZ
    dof rx ry rz
    limits (-160.0 20.0)
           (-70.0 70.0)
           (-70.0 60.0)
  end
  begin
     id 8 
     name rtibia
     direction -0.34202 -0.939693 0   
     length 7.99111   
     axis 0 0 -20   XYZ
    dof rx
    limits (-10.0 170.0)
 end
 begin
     id 9 
     name rfoot
     direction -0.0783088 -0.215152 0.973436   
     length 1.98785  
     axis -90 -7.62852e-016 -20   XYZ
    dof rx rz
    limits (-45.0 90.0)
           (-20.0 70.0)
  end
  begin
     id 10 
     name rtoes
     direction -1.53606e-011 -4.21943e-011 1   
     length 1.001   
     axis -90 -7.62852e-016 -20   XYZ
    dof rx
    limits (-90.0 20.0)
  end
  begin
     id 11 
     name lowerback
     direction 0.00141527 0.998403 -0.0564763   
     length 2.30486   
     axis 0 0 0   XYZ
    dof rx ry rz
    limits (-20.0 45.0)
           (-30.0 30.0)
           (-30.0 30.0)
  end
  begin
     id 12 
     name upperback
     direction 0.0125137 0.999915 0.00361315   
     length 2.30697   
     axis 0 0 0   XYZ
    dof rx ry rz
    limits (-20.0 45.0)
           (-30.0 30.0)
           (-30.0 30.0)
  end
  begin
     id 13 
     name thorax
     direction 0.0136417 0.999471 0.0295116   
     length 2.31005   
     axis 0 0 0   XYZ
    dof rx ry rz
    limits (-20.0 45.0)
           (-30.0 30.0)
           (-30.0 30.0)
  end
  begin
     id 14 
     name lowerneck
     direction 0.0766806 0.997047 0.00422047   
     length 1.68825   
     axis 0 0 0   XYZ
    dof rx ry rz
    limits (-20.0 45.0)
           (-30.0 30.0)
           (-30.0 30.0)
  end
  begin
     id 15 
     name upperneck
     direction -0.143512 0.985106 -0.0947088   
     length 1.69772   
     axis 0 0 0   XYZ
    dof rx ry rz
    limits (-20.0 45.0)
           (-30.0 30.0)
           (-30.0 30.0)
  end
  begin
     id 16
     name head
     direction -0.0539128 0.997849 -0.0372864  
     length 1.71187  
     axis 0 0 0   XYZ
    dof rx ry rz
    limits (-20.0 45.0)
           (-30.0 30.0)
           (-30.0 30.0)
  end
  begin
     id 17 
     name lclavicle
     direction 0.978251 0.207416 -0.00165765  
     length 3.35399  
     axis 0 0 0   XYZ
    dof ry rz
    limits (-20.0 10.0)
           (0.0 20.0)
  end
  begin
     id 18 
     name lhumerus
     direction 1 -4.48966e-011 -1.32191e-028   
     length 5.70706   
     axis 180 -30 -90   XYZ
    dof rx ry rz
    limits (-60.0 90.0)
           (-90.0 90.0)
           (-90.0 90.0)
  end
  begin
     id 19
     name lradius
     direction 1 -4.48976e-011 9.36106e-027   
     length 3.33243   
     axis 180 -30 -90   XYZ
    dof rx
    limits (-10.0 170.0)
  end
  begin
     id 20
     name lwrist
     direction 1 -4.48976e-011 1.1555e-026   
     length 1.66621   
     axis -5.7412e-015 90 90   XYZ
    dof ry
    limits (-180.0 0.0)
 end
  begin
     id 21 
     name lhand
     direction 1 -4.48939e-011 2.31113e-026   
     length 0.792687   
     axis -1.47463e-014 90 90   XYZ
    dof rx rz
    limits (-90.0 90.0)
           (-45.0 45.0)
  end
  begin
     id 22 
     name lfingers
     direction 1 -4.48866e-011 4.62274e-026   
     length 0.639085   
     axis -2.94925e-014 90 90   XYZ
    dof rx
    limits (0.0 90.0)
  end
  begin
     id 23
     name lthumb
     direction 0.707107 -6.34847e-011 0.707107   
     length 0.917601   
     axis -90 45 -6.68868e-015   XYZ
    dof rx rz
    limits (-45.0 45.0)
           (-45.0 45.0)
  end
  begin
     id 24 
     name rclavicle
     direction -0.981813 0.185514 0.0403428   
     length 3.47271  
     axis 0 0 0   XYZ 
    dof ry rz
    limits (-10.0 20.0)
           (-20.0 0.0)
  end
  begin
     id 25 
     name rhumerus
     direction -1 -4.48972e-011 -6.58544e-029  
     length 5.88176   
     axis 180 30 90   XYZ
    dof rx ry rz
    limits (-90.0 60.0)
           (-90.0 90.0)
           (-90.0 90.0)
  end
  begin
     id 26 
     name rradius
     direction -1 -4.48964e-011 8.36306e-027   
     length 3.28156   
     axis 180 30 90   XYZ
    dof rx
    limits (-10.0 170.0)
  end
  begin
     id 27 
     name rwrist
     direction -1 -4.48903e-011 1.15562e-026   
     length 1.64078   
     axis -5.7412e-015 -90 -90   XYZ
    dof ry
    limits (-180.0 0.0)
  end
  begin
     id 28
     name rhand
     direction -1 -4.49055e-011 2.31074e-026   
     length 0.863125   
     axis -1.47463e-014 -90 -90   XYZ
    dof rx rz
    limits (-90.0 90.0)
           (-45.0 45.0)
  end
  begin
     id 29
     name rfingers
     direction -1 -4.48994e-011 4.62188e-026   
     length 0.695873   
     axis -2.94925e-014 -90 -90   XYZ
    dof rx
    limits (0.0 90.0)
  end
  begin
     id 30
     name rthumb
     direction -0.707107 -6.35058e-011 0.707107   
     length 0.999139   
     axis -90 -45 6.68868e-015   XYZ
    dof rx rz
    limits (-45.0 45.0)
           (-45.0 45.0)
  end
:hierarchy
  begin
    root lhipjoint rhipjoint lowerback
    lhipjoint lfemur
    lfemur ltibia
    ltibia lfoot
    lfoot ltoes
    rhipjoint rfemur
    rfemur rtibia
    rtibia rfoot
    rfoot rtoes
    lowerback upperback
    upperback thorax
    thorax lowerneck lclavicle rclavicle
    lowerneck upperneck
    upperneck head
    lclavicle lhumerus
    lhumerus lradius
    lradius lwrist
    lwrist lhand lthumb
    lhand lfingers
    rclavicle rhumerus
    rhumerus rradius
    rradius rwrist
    rwrist rhand rthumb
    rhand rfingers
  end

#!OML:ASF \\Waltz\H\Terrain\Patient Classification 1\Animal2\Wednesday\Animal2.ASF
:FULLY-SPECIFIED
:DEGREES
1704
root -1.17485 17.6917 9.56882 2.03421 4.40359 -12.7436
lowerback 4.60586 -6.73968 5.64944
upperback -4.00638 -8.09601 9.26915
thorax -6.23263 -4.04652 7.49226
lowerneck 11.2313 8.55134 19.3482
upperneck -11.4509 12.2176 -23.9375
head -2.30977 6.82931 -11.2993
rclavicle 4.45278e-014 -4.45278e-014
rhumerus 46.8435 46.3722 -14.7648
rradius 87.8356
rwrist -26.0131
rhand -18.8526 17.1785
rfingers 7.12502
rthumb 7.44745 -12.6704
lclavicle 4.45278e-014 -4.45278e-014
lhumerus 34.6609 15.7343 31.7772
lradius 69.8519
lwrist -1.87664
lhand -51.9114 25.2171
lfingers 7.12502
lthumb -24.4226 53.6805
rfemur -13.5335 -12.5512 36.3214
rtibia 33.0066
rfoot -7.97867 17.4861
rtoes 28.4388
lfemur -28.288 -9.06243 -6.76754
ltibia 55.7673
lfoot -16.8995 8.89088
ltoes -1.36738
1705
root -1.19773 17.6655 9.57104 2.12159 3.78358 -12.9786
lowerback 4.49042 -6.64454 5.50081
upperback -3.82386 -8.01358 9.30838
thorax -5.94974 -4.00565 7.56578
lowerneck 11.1982 8.57119 19.4772
upperneck -11.4298 12.2939 -23.5222
head -2.30638 6.8341 -11.1669
rclavicle 7.95139e-016 -9.22361e-014
rhumerus 46.823 46.0742 -15.1598
rradius 87.7682
rwrist -25.8361
rhand -18.8885 17.0416
rfingers 7.12502
rthumb 7.41281 -12.8085
lclavicle 7.95139e-016 -9.22361e-014
lhumerus 35.0634 15.7035 31.2324
lradius 69.9862
lwrist -1.87321
lhand -52.1745 24.0395
lfingers 7.12502
lthumb -24.6747 52.4686
rfemur -13.4083 -12.8261 36.5703
rtibia 32.8942
rfoot -8.276 18.2962
rtoes 27.1159
lfemur -28.572 -8.17893 -6.65368
ltibia 56.5671
lfoot -17.425 8.53999
ltoes 2.23745
1706
root -1.21636 17.6365 9.5716 2.25726 3.15264 -12.9089
lowerback 4.54237 -6.53465 5.06473
upperback -3.82195 -7.89949 9.31462
thorax -5.9238 -3.93429 7.80474
lowerneck 11.4172 8.53701 19.6131
upperneck -11.4611 12.3195 -23.2842
head -2.35808 6.83701 -11.1235
rclavicle 1.82385e-014 4.29375e-014
rhumerus 46.6378 46.0369 -15.447
rradius 87.8423
rwrist -25.6714
rhand -19.0806 17.2398
rfingers 7.12502
rthumb 7.22739 -12.6168
lclavicle 1.82385e-014 4.29375e-014
lhumerus 35.285 15.4612 30.6841
lradius 70.1044
lwrist -1.94168
lhand -52.3386 23.8382
lfingers 7.12502
lthumb -24.832 52.2457
rfemur -13.37 -12.9374 36.5377
rtibia 32.887
rfoot -8.74371 18.7111
rtoes 25.4666
lfemur -28.8166 -7.30258 -6.87873
ltibia 57.2698
lfoot -18.0644 8.14811
ltoes 4.57679
1707
root -1.22742 17.6011 9.57255 2.34683 2.55093 -13.0947
lowerback 4.74429 -6.50195 4.95059
upperback -3.87701 -7.83867 9.37726
thorax -6.07945 -3.89647 7.96727
lowerneck 11.6583 8.59681 19.7099
upperneck -11.5035 12.4823 -22.924
head -2.3987 6.90225 -11.0256
rclavicle -6.07784e-014 8.5875e-014
rhumerus 46.69 46.0935 -15.8552
rradius 87.8234
rwrist -25.5727
rhand -18.8876 17.346
rfingers 7.12502
rthumb 7.41363 -12.5041
lclavicle -6.07784e-014 8.5875e-014
lhumerus 35.3282 15.2306 29.9448
lradius 70.0441
lwrist -1.87358
lhand -52.1154 24.6044
lfingers 7.12502
lthumb -24.6181 53.0412
rfemur -13.3739 -13.0999 36.7682
rtibia 33.0146
rfoot -8.42556 19.29
rtoes 27.0918
lfemur -29.0619 -6.37602 -6.80836
ltibia 57.9594
lfoot -18.758 7.63204
ltoes 4.98133
1708
root -1.23657 17.5616 9.57835 2.35017 1.82619 -13.3591
lowerback 4.86481 -6.48908 5.1089
upperback -3.8228 -7.80588 9.30207
thorax -6.12574 -3.88762 7.80889
lowerneck 11.9742 8.65304 19.9687
upperneck -11.5485 12.6792 -22.6003
head -2.43138 6.98344 -10.9715
rclavicle -8.15017e-015 2.70347e-014
rhumerus 46.8081 46.1162 -16.7581
rradius 87.6297
rwrist -25.5527
rhand -18.4016 17.1973
rfingers 7.12502
rthumb 7.88276 -12.6357
lclavicle -8.15017e-015 2.70347e-014
lhumerus 35.1629 15.0153 28.8836
lradius 70.2769
lwrist -1.76946
lhand -52.1854 24.6655
lfingers 7.12502
lthumb -24.6852 53.0932
rfemur -13.3445 -13.2842 37.0959
rtibia 33.2687
rfoot -7.98881 19.8666
rtoes 28.9985
lfemur -29.1272 -5.3658 -6.61673
ltibia 58.6343
lfoot -19.5291 7.10787
ltoes 2.81977
1709
root -1.2474 17.5156 9.58109 2.41444 1.12124 -13.4834
lowerback 4.9556 -6.43118 5.06735
upperback -3.80035 -7.72705 9.2947
thorax -6.15586 -3.84738 7.82727
lowerneck 12.1364 8.74199 20.0641
upperneck -11.394 12.8814 -22.3829
head -2.38239 7.07476 -10.9043
rclavicle -4.77083e-014 3.33958e-014
rhumerus 46.9944 46.1533 -17.2382
rradius 87.5614
rwrist -25.6272
rhand -18.2487 17.1991
rfingers 7.12502
rthumb 8.03034 -12.6283
lclavicle -4.77083e-014 3.33958e-014
lhumerus 35.0449 14.9026 28.3326
lradius 70.6124
lwrist -2.00376
lhand -52.3673 23.8339
lfingers 7.12502
lthumb -24.8595 52.2377
rfemur -13.4648 -13.3596 37.3627
rtibia 33.6443
rfoot -8.63681 19.9579
rtoes 29.801
lfemur -29.2491 -4.4586 -6.49433
ltibia 59.2857
lfoot -20.3682 6.86809
ltoes 1.1648
1710
root -1.25534 17.4712 9.58166 2.58551 0.490515 -13.3296
lowerback 4.8587 -6.33905 4.83246
upperback -3.76158 -7.64466 9.17847
thorax -6.04895 -3.80259 7.80077
lowerneck 12.123 8.88764 19.9476
upperneck -11.2382 13.1155 -21.8627
head -2.33738 7.1619 -10.6843
rclavicle 5.9536e-014 4.85035e-014
rhumerus 47.0774 46.1214 -17.6419
rradius 87.6623
rwrist -25.6912
rhand -18.4139 17.2205
rfingers 7.12502
rthumb 7.87085 -12.613
lclavicle 5.9536e-014 4.85035e-014
lhumerus 35.294 14.8385 27.9527
lradius 70.6944
lwrist -2.51375
lhand -52.4283 23.9113
lfingers 7.12502
lthumb -24.918 52.307
rfemur -13.8064 -13.4262 37.3676
rtibia 34.1609
rfoot -9.62397 19.9109
rtoes 31.5379
lfemur -29.46 -3.70745 -6.63212
ltibia 59.853
lfoot -21.2581 7.07364
ltoes 0.278902
1711
root -1.2596 17.4323 9.58211 2.8952 -0.216198 -13.0462
lowerback 4.66656 -6.25706 4.59635
upperback -3.81431 -7.58115 8.94875
thorax -5.99885 -3.76786 7.65102
lowerneck 12.565 8.95964 19.8324
upperneck -11.4395 13.29 -21.3414
head -2.48588 7.23554 -10.5255
rclavicle 6.06293e-015 -2.3059e-014
rhumerus 47.054 46.2178 -18.2849
rradius 87.8001
rwrist -25.6465
rhand -18.663 17.1385
rfingers 7.12502
rthumb 7.63047 -12.7038
lclavicle 6.06293e-015 -2.3059e-014
lhumerus 35.4116 14.6744 27.2758
lradius 70.6618
lwrist -2.92572
lhand -52.8811 24.0809
lfingers 7.12502
lthumb -25.3519 52.4157
rfemur -14.3731 -13.2445 37.2533
rtibia 34.7806
rfoot -9.95448 19.9291
rtoes 34.754
lfemur -29.7114 -2.95758 -6.85526
ltibia 60.3133
lfoot -22.2159 7.37773
ltoes -0.285421
1712
root -1.25844 17.3957 9.58466 3.23713 -1.03236 -12.9215
lowerback 4.40859 -6.19337 4.56107
upperback -3.81603 -7.53134 8.84059
thorax -5.86647 -3.74759 7.51102
lowerneck 12.9519 9.10727 19.5022
upperneck -11.7336 13.4982 -20.987
head -2.64602 7.34066 -10.3906
rclavicle 4.59193e-014 -4.29375e-014
rhumerus 47.3026 46.2128 -18.7125
rradius 87.8796
rwrist -25.555
rhand -18.8872 17.0781
rfingers 7.12502
rthumb 7.41405 -12.772
lclavicle 4.59193e-014 -4.29375e-014
lhumerus 35.1976 14.7697 26.6674
lradius 70.8527
lwrist -3.00181
lhand -53.159 23.0189
lfingers 7.12502
lthumb -25.618 51.3157
rfemur -14.9136 -12.8045 37.2972
rtibia 35.3685
rfoot -10.4918 19.8569
rtoes 36.2109
lfemur -29.9411 -2.16706 -6.79673
ltibia 60.7082
lfoot -23.1844 7.449
ltoes 0.582036
1713
root -1.24941 17.3497 9.59571 3.3653 -1.86814 -12.8218
lowerback 4.2788 -6.06539 4.56745
upperback -3.7535 -7.37988 8.821
thorax -5.74197 -3.67608 7.44796
lowerneck 12.9294 9.31492 18.9744
upperneck -11.6156 13.723 -20.6173
head -2.63224 7.44795 -10.165
rclavicle 4.96962e-015 -1.51076e-014
rhumerus 47.5782 46.1688 -18.8372
rradius 87.928
rwrist -25.507
rhand -19.1453 17.0331
rfingers 7.12502
rthumb 7.16493 -12.8256
lclavicle 4.96962e-015 -1.51076e-014
lhumerus 35.0028 14.9298 26.5299
lradius 71.3602
lwrist -3.17557
lhand -52.9526 22.8616
lfingers 7.12502
lthumb -25.4204 51.1866
rfemur -15.0881 -12.5972 37.2739
rtibia 35.882
rfoot -11.6264 19.8501
rtoes 35.5293
lfemur -29.8248 -1.42485 -6.67394
ltibia 61.0588
lfoot -23.7641 7.82471
ltoes -0.617256
1714
root -1.23814 17.3053 9.60685 3.47336 -2.62953 -12.8264
lowerback 4.27992 -5.96526 4.67291
upperback -3.7693 -7.23756 8.80935
thorax -5.78707 -3.60917 7.3684
lowerneck 12.8582 9.50208 18.8101
upperneck -11.2043 13.9896 -20.4677
head -2.47278 7.57845 -10.0473
rclavicle 4.13969e-014 1.82882e-014
rhumerus 47.8586 46.2747 -18.9035
rradius 88.04
rwrist -25.4952
rhand -19.2912 17.1264
rfingers 7.12502
rthumb 7.02406 -12.7371
lclavicle 4.13969e-014 1.82882e-014
lhumerus 34.7282 14.9764 26.4095
lradius 71.8804
lwrist -3.67388
lhand -52.8509 24.2923
lfingers 7.12502
lthumb -25.323 52.6312
rfemur -15.1973 -12.5684 37.3487
rtibia 36.3274
rfoot -12.8575 19.8441
rtoes 35.7505
lfemur -29.6768 -0.91532 -6.34202
ltibia 61.3858
lfoot -24.094 8.33953
ltoes -2.99612
